<svg width="375" height="456" viewBox="0 0 375 456" fill="none" xmlns="http://www.w3.org/2000/svg">
<g clip-path="url(#clip0_2_260)">
<path d="M334.706 168.352C334.574 167.925 334.277 167.567 333.881 167.359C333.485 167.15 333.023 167.107 332.595 167.239C332.168 167.372 331.81 167.669 331.602 168.064C331.393 168.46 331.35 168.923 331.483 169.35L337.266 188.025L324.45 181.266C324.254 181.158 324.038 181.09 323.815 181.067C323.592 181.043 323.367 181.064 323.153 181.128C322.938 181.193 322.738 181.299 322.565 181.441C322.392 181.584 322.249 181.759 322.145 181.957C322.04 182.155 321.976 182.372 321.956 182.595C321.936 182.819 321.961 183.043 322.029 183.257C322.097 183.47 322.207 183.668 322.352 183.839C322.498 184.009 322.676 184.149 322.875 184.25L335.693 191.008L317.019 196.791C316.591 196.924 316.234 197.221 316.025 197.616C315.816 198.012 315.774 198.475 315.906 198.902C316.038 199.33 316.335 199.687 316.731 199.896C317.127 200.104 317.589 200.147 318.017 200.015L336.691 194.232L329.935 207.047C329.735 207.442 329.699 207.899 329.833 208.321C329.967 208.742 330.262 209.094 330.653 209.3C331.044 209.507 331.501 209.551 331.925 209.424C332.349 209.297 332.706 209.009 332.919 208.621L339.676 195.806L345.458 214.479C345.59 214.907 345.887 215.264 346.283 215.473C346.679 215.681 347.141 215.724 347.569 215.592C347.996 215.459 348.354 215.163 348.562 214.767C348.771 214.371 348.814 213.908 348.681 213.481L342.898 194.806L355.713 201.563C356.108 201.762 356.566 201.799 356.987 201.665C357.409 201.53 357.76 201.236 357.967 200.844C358.173 200.453 358.218 199.996 358.091 199.573C357.964 199.149 357.676 198.792 357.288 198.579L344.473 191.822L363.146 186.04C363.573 185.907 363.93 185.611 364.139 185.215C364.348 184.819 364.391 184.356 364.258 183.929C364.126 183.501 363.829 183.144 363.433 182.935C363.037 182.727 362.575 182.684 362.147 182.816L343.473 188.599L350.229 175.784C350.337 175.588 350.405 175.372 350.429 175.149C350.452 174.927 350.431 174.701 350.367 174.487C350.303 174.272 350.196 174.072 350.054 173.899C349.912 173.726 349.736 173.583 349.538 173.479C349.34 173.374 349.123 173.31 348.9 173.29C348.677 173.271 348.452 173.295 348.238 173.363C348.025 173.431 347.827 173.541 347.657 173.687C347.486 173.832 347.346 174.01 347.245 174.21L340.489 187.025L334.706 168.352Z" fill="#E2D34D"/>
</g>
<g clip-path="url(#clip1_2_260)">
<path d="M70.4043 240.261L61.7079 253.173L46.2611 255.112L59.1736 263.808L61.1121 279.255L69.8084 266.342L85.2553 264.404L72.3427 255.708L70.4043 240.261Z" fill="#E59DFE"/>
</g>
<g clip-path="url(#clip2_2_260)">
<path d="M175.733 301.411L178.771 304.185L182.86 303.733L180.085 306.77L180.537 310.859L177.5 308.085L173.411 308.537L176.186 305.5L175.733 301.411ZM173.15 296.33L174.102 304.82L168.33 311.12L176.821 310.169L183.121 315.94L182.169 307.45L187.941 301.15L179.45 302.101L173.15 296.33Z" fill="#92CAFF"/>
</g>
<path d="M54.1051 133.545C52.455 130.437 52.877 126.636 55.1687 123.966L116.217 52.8443C119.498 49.023 124.098 46.5798 129.101 46.0026L222.214 35.2604C225.709 34.8572 229.094 36.6364 230.744 39.7438C232.394 42.8513 231.972 46.6524 229.681 49.3221L168.632 120.444C165.352 124.265 160.751 126.709 155.748 127.286L62.6359 138.028C59.1406 138.431 55.7553 136.652 54.1051 133.545Z" fill="#92CAFF"/>
<path d="M118.194 106.305L123.042 103.73L122.992 103.635C121.285 103.991 121.004 103.998 120.269 102.615L118.226 98.7675L120.149 97.7058C120.919 97.2762 121.834 97.4632 122.562 97.9526L122.642 97.9104L121.241 95.2714L121.161 95.3136C121.123 96.0473 120.773 96.8853 119.946 97.3243L118.007 98.3542L115.516 93.6644L117.678 92.5163C119.077 91.7734 120.562 92.2282 121.698 93.2552L121.794 93.2045L120.106 90.7175L112.157 94.9385L112.208 95.0339C113.66 94.8131 113.91 94.8231 114.644 96.2061L118.536 103.535C119.271 104.918 119.139 105.131 118.143 106.21L118.194 106.305ZM132.769 98.7692C133.468 98.3977 133.678 97.4505 133.566 96.4709L133.405 96.4748C133.427 97.054 133.292 97.4519 133.022 97.5954C132.783 97.722 132.507 97.6241 132.321 97.2744L130.053 92.7724C129.4 91.4276 127.935 91.1253 126.377 91.9527C125.01 92.6787 124.124 93.9646 124.054 95.4077L125.87 95.5645L125.925 95.5148C125.245 94.0418 125.416 92.8298 126.418 92.2979C127.197 91.8842 127.936 92.164 128.393 93.0628L128.919 94.1289C126.033 96.9455 125.087 98.7724 125.83 100.171C126.387 101.221 127.601 101.473 128.761 100.856C129.827 100.291 130.603 99.1041 130.78 97.7873L130.804 97.7947C131.286 98.7411 132.069 99.1407 132.769 98.7692ZM129.18 99.5336C128.417 99.9388 127.622 99.7087 127.208 98.9297C126.626 97.8328 127.21 96.361 129.063 94.4394L130.553 97.3983C130.281 98.4598 129.816 99.1959 129.18 99.5336ZM134.585 97.6007L138.385 95.5831L138.334 95.4877C137.202 95.6201 136.919 95.5868 136.244 94.315L134.269 90.595C134.402 89.4644 134.934 88.5092 135.713 88.0956C136.571 87.6397 137.386 88.0223 137.994 89.167C138.703 90.5024 139.202 91.4805 139.726 92.4662C140.401 93.738 140.254 93.9993 139.511 94.863L139.561 94.9584L143.361 92.9407L143.31 92.8453C142.178 92.9778 141.879 92.9529 141.204 91.6811L139.33 88.1518C138.528 86.6416 137.213 86.1987 135.957 86.8657C134.86 87.4482 134.118 88.7386 133.993 90.1911L133.03 88.3788C132.323 89.0805 131.533 89.7038 130.669 90.2645L130.72 90.3599C131.94 90.2012 132.242 90.387 132.96 91.7383L134.75 95.1086C135.425 96.3804 135.278 96.6416 134.535 97.5054L134.585 97.6007ZM146.471 91.452C147.25 91.0384 147.684 90.3594 147.792 89.1811L147.687 89.1354C147.51 89.8 147.204 90.1457 146.838 90.3399C146.266 90.6438 145.397 90.657 144.746 89.3927L142.11 84.3522L144.256 83.2125L144.109 82.7813L141.883 83.9632L140.845 82.0078L140.701 82.0838C140.744 83.1617 140.185 84.6812 139.72 85.4173L139.805 85.5763L140.615 85.1457L143.401 90.3919C144.17 91.8386 145.422 92.0092 146.471 91.452ZM155.078 86.9223C155.777 86.5508 155.988 85.6036 155.875 84.6239L155.714 84.6279C155.736 85.2071 155.601 85.605 155.331 85.7485C155.093 85.8751 154.816 85.7772 154.631 85.4275L152.362 80.9255C151.709 79.5807 150.244 79.2784 148.686 80.1057C147.319 80.8317 146.433 82.1177 146.364 83.5607L148.179 83.7175L148.234 83.6679C147.554 82.1949 147.726 80.9828 148.727 80.451C149.506 80.0373 150.246 80.3171 150.703 81.2158L151.228 82.2819C148.342 85.0985 147.396 86.9254 148.139 88.3244C148.696 89.3736 149.91 89.6257 151.071 89.0094C152.136 88.4438 152.912 87.2572 153.089 85.9403L153.113 85.9478C153.596 86.8942 154.378 87.2937 155.078 86.9223ZM151.489 87.6867C150.726 88.0919 149.931 87.8617 149.518 87.0828C148.935 85.9858 149.519 84.5141 151.372 82.5924L152.862 85.5514C152.59 86.6129 152.125 87.349 151.489 87.6867ZM160.287 84.1971C161.845 83.3697 162.4 82.0356 161.733 80.7797C161.176 79.7304 160.054 79.307 158.052 79.4125C156.282 79.4961 155.593 79.3117 155.205 78.5804C154.825 77.865 155.025 77.1676 155.661 76.8299C156.424 76.4247 157.679 76.6758 159.213 77.532L159.316 77.457L158.211 75.7206C157.223 75.8173 156.263 76.0824 155.579 76.4454C154.085 77.239 153.545 78.5245 154.186 79.7327C154.743 80.7819 155.881 81.1969 157.82 81.1252C159.614 81.049 160.319 81.2652 160.716 82.0124C161.105 82.7437 160.888 83.4496 160.157 83.8379C159.283 84.3022 157.964 84.0447 156.047 83.0449L155.96 83.1114L157.205 84.9571C158.42 84.9031 159.46 84.6361 160.287 84.1971ZM166.734 84.8087C167.327 84.0453 167.718 82.5943 167.64 80.7201C167.592 79.4007 167.211 76.0361 166.794 72.7932C166.664 71.7818 166.799 71.3839 167.407 70.5316L167.356 70.4362L164.59 71.9052L164.64 72.0005C165.524 71.8984 165.969 72.0082 166.231 72.501C166.29 72.6123 166.316 72.7003 166.354 72.9248C166.6 74.4245 166.767 75.6605 167.027 78.0295L162.879 74.709C162.698 74.5605 162.558 74.4109 162.473 74.2519C162.271 73.8704 162.454 73.4874 163.019 72.8616L162.968 72.7662L159.057 74.843L159.108 74.9384C159.862 74.8233 160.428 74.9302 160.987 75.3674L167.21 80.2555C167.208 80.481 167.237 80.6897 167.242 80.8909C167.264 82.1223 166.471 83.2771 165.252 83.8224L165.271 83.9346L166.734 84.8087Z" fill="white"/>
<rect x="183" y="114.776" width="200" height="70" rx="6" transform="rotate(-17.3904 183 114.776)" fill="#E59DFE"/>
<path d="M255.109 134.632L260.021 133.093L259.989 132.99C258.521 132.941 258.294 132.88 257.826 131.385L256.503 127.16L262.171 125.384L263.495 129.61C263.963 131.104 263.812 131.284 262.617 132.167L262.649 132.27L267.579 130.726L267.547 130.623C266.079 130.574 265.835 130.518 265.367 129.024L262.887 121.105C262.419 119.61 262.587 119.426 263.765 118.548L263.733 118.445L258.803 119.989L258.835 120.092C260.32 120.136 260.547 120.197 261.015 121.691L261.967 124.732L256.298 126.507L255.346 123.467C254.878 121.972 255.029 121.793 256.207 120.915L256.175 120.812L251.262 122.35L251.294 122.453C252.762 122.503 253.006 122.559 253.474 124.053L255.954 131.972C256.422 133.466 256.254 133.651 255.076 134.529L255.109 134.632ZM268.14 130.551L272.245 129.265L272.213 129.162C271.075 129.084 270.804 129 270.373 127.625L268.356 121.184C267.532 121.744 266.641 122.212 265.637 122.62L265.669 122.723C266.908 122.826 267.161 123.029 267.624 124.507L268.759 128.131C269.189 129.505 268.997 129.735 268.107 130.448L268.14 130.551ZM266.888 120.172C267.421 120.006 267.774 119.386 267.602 118.836C267.44 118.321 266.792 117.996 266.259 118.163C265.709 118.335 265.362 118.972 265.523 119.487C265.695 120.037 266.339 120.344 266.888 120.172ZM276.289 128.225C277.972 127.698 278.763 126.488 278.338 125.131C277.983 123.997 276.958 123.375 274.97 123.111C273.216 122.868 272.572 122.561 272.325 121.771C272.083 120.998 272.408 120.349 273.095 120.134C273.919 119.875 275.106 120.352 276.458 121.476L276.572 121.421L275.805 119.511C274.816 119.425 273.823 119.509 273.085 119.741C271.47 120.246 270.703 121.411 271.112 122.716C271.467 123.85 272.509 124.467 274.428 124.752C276.205 125.007 276.859 125.349 277.112 126.156C277.36 126.946 277.018 127.6 276.228 127.848C275.283 128.144 274.034 127.648 272.333 126.314L272.235 126.363L273.12 128.406C274.324 128.576 275.396 128.505 276.289 128.225ZM282.814 126.106C283.656 125.842 284.208 125.254 284.53 124.116L284.434 124.051C284.138 124.672 283.775 124.956 283.38 125.08C282.761 125.273 281.904 125.127 281.496 123.765L279.831 118.326L282.15 117.599L282.084 117.149L279.679 117.902L279.017 115.789L278.863 115.837C278.707 116.905 277.878 118.296 277.286 118.934L277.34 119.106L278.216 118.831L279.991 124.5C280.481 126.063 281.681 126.461 282.814 126.106ZM289.228 124.135C291.564 123.403 292.705 121.084 291.903 118.525C291.107 115.982 288.903 114.786 286.601 115.507C284.265 116.239 283.112 118.581 283.924 121.174C284.71 123.682 286.909 124.861 289.228 124.135ZM289.475 123.661C287.878 124.161 286.097 122.21 285.371 119.891C284.682 117.693 285.288 116.315 286.37 115.976C287.951 115.481 289.719 117.454 290.446 119.773C291.107 121.886 290.609 123.306 289.475 123.661ZM293.822 122.507L298.202 121.135L298.169 121.032C296.809 121.025 296.486 120.956 296.055 119.582L294.727 115.339C294.813 114.652 295.096 114.11 295.646 113.938C296.127 113.788 296.858 113.955 297.429 114.21L297.532 114.178L297.106 112.217L296.471 112.416C295.2 112.814 294.619 113.732 294.547 114.886L294.49 114.885L293.986 113.157C293.214 113.7 292.288 114.179 291.319 114.577L291.351 114.68C292.535 114.724 292.843 114.986 293.306 116.463L294.441 120.088C294.871 121.462 294.679 121.692 293.789 122.404L293.822 122.507ZM300.649 120.369L304.754 119.083L304.722 118.98C303.585 118.902 303.313 118.818 302.883 117.444L300.865 111.002C300.041 111.562 299.15 112.03 298.146 112.438L298.178 112.542C299.418 112.644 299.67 112.848 300.133 114.325L301.268 117.949C301.698 119.324 301.506 119.553 300.617 120.266L300.649 120.369ZM299.398 109.991C299.93 109.824 300.283 109.204 300.111 108.654C299.95 108.139 299.301 107.814 298.768 107.981C298.219 108.153 297.871 108.79 298.032 109.305C298.205 109.855 298.848 110.163 299.398 109.991ZM308.998 117.943C310.733 117.399 311.536 115.865 311.456 113.985L311.302 113.977C311.186 115.05 310.593 116.047 309.373 116.429C307.724 116.946 305.953 116.048 305.205 113.661C304.527 111.496 305.305 110.064 306.25 109.768C307.16 109.483 308.074 110.234 308.76 111.642L308.857 111.649L309.904 110.114C308.921 109.384 307.574 108.939 306.286 109.342C304.328 109.955 303.131 112.217 303.959 114.862C304.745 117.37 306.851 118.615 308.998 117.943ZM319.768 114.57C320.524 114.333 320.904 113.44 320.973 112.457L320.815 112.431C320.73 113.004 320.524 113.371 320.232 113.462C319.974 113.543 319.721 113.396 319.603 113.018L318.199 108.176C317.804 106.734 316.42 106.168 314.736 106.695C313.259 107.158 312.152 108.259 311.819 109.665L313.575 110.153L313.638 110.114C313.24 108.541 313.631 107.381 314.713 107.042C315.555 106.779 316.23 107.189 316.515 108.157L316.835 109.301C313.481 111.54 312.216 113.162 312.69 114.674C313.045 115.808 314.192 116.278 315.446 115.886C316.597 115.525 317.577 114.501 317.993 113.239L318.016 113.251C318.316 114.27 319.012 114.806 319.768 114.57ZM316.1 114.662C315.275 114.92 314.536 114.548 314.273 113.706C313.902 112.521 314.746 111.182 316.92 109.633L317.841 112.815C317.379 113.809 316.787 114.447 316.1 114.662ZM321.768 113.754L325.873 112.469L325.841 112.366C324.704 112.288 324.432 112.203 324.002 110.829L320.596 99.9559C319.772 100.516 318.887 101.001 317.877 101.392L317.91 101.495C319.149 101.598 319.401 101.801 319.864 103.279L322.387 111.335C322.818 112.709 322.626 112.939 321.736 113.651L321.768 113.754Z" fill="white"/>
<rect x="-1.13214" y="134" width="200" height="70" rx="35" transform="rotate(13.9439 -1.13214 134)" fill="#E3AF61"/>
<path d="M60.3242 190.989L65.635 192.307C69.2861 193.214 72.4349 191.214 73.3848 187.388C74.3434 183.527 72.37 180.719 67.9152 179.613L63.4255 178.498L63.3995 178.603C64.6276 179.408 64.8068 179.583 64.4295 181.102L62.4299 189.156C62.0525 190.676 61.8125 190.746 60.3503 190.884L60.3242 190.989ZM65.5425 191.783C64.8087 191.601 63.9741 191.079 64.0868 190.625L66.7761 179.793L67.7369 180.032C71.0037 180.843 72.2474 183.229 71.3192 186.968C70.417 190.601 68.2677 192.46 65.6648 191.814L65.5425 191.783ZM72.6047 194.038L77.0594 195.144L77.0854 195.039C75.9274 194.325 75.6869 194.098 76.0339 192.701L77.1053 188.386C77.5366 187.844 78.06 187.528 78.619 187.667C79.1081 187.789 79.646 188.312 80.0004 188.826L80.1052 188.852L80.7614 186.957L80.115 186.796C78.8223 186.475 77.8495 186.957 77.1874 187.905L77.1394 187.875L77.6081 186.136C76.6652 186.199 75.626 186.127 74.5911 185.962L74.5651 186.067C75.5528 186.72 75.68 187.104 75.307 188.607L74.3918 192.293C74.0448 193.69 73.7612 193.787 72.6307 193.933L72.6047 194.038ZM85.9117 197.527C86.6804 197.718 87.4697 197.154 88.0403 196.349L87.9179 196.245C87.5475 196.691 87.1811 196.896 86.8841 196.823C86.6221 196.758 86.482 196.5 86.5774 196.116L87.8967 191.25C88.3091 189.814 87.421 188.61 85.709 188.185C84.2066 187.812 82.6879 188.177 81.6724 189.204L82.9187 190.534L82.9929 190.534C83.4707 188.983 84.408 188.196 85.5086 188.469C86.3646 188.682 86.7281 189.384 86.4677 190.358L86.1465 191.502C82.1173 191.67 80.1932 192.398 79.8115 193.935C79.5252 195.088 80.2603 196.087 81.5355 196.403C82.706 196.694 84.0762 196.33 85.0877 195.468L85.1008 195.49C84.8274 196.516 85.1431 197.336 85.9117 197.527ZM82.7306 195.699C81.8921 195.49 81.4544 194.788 81.6669 193.932C81.9662 192.727 83.3839 192.022 86.0466 191.83L85.1786 195.027C84.2672 195.635 83.4294 195.872 82.7306 195.699ZM88.0441 197.871L92.2193 198.908L92.2453 198.803C91.3144 198.145 91.1263 197.932 91.4733 196.534L92.4883 192.446C93.3034 191.628 94.1279 191.295 94.9141 191.491C95.8574 191.725 96.2604 192.567 95.9525 193.807C95.6575 194.995 95.3364 196.213 95.0197 197.415C94.6552 198.808 94.3716 198.904 93.2411 199.05L93.2151 199.155L97.3903 200.192L97.4163 200.087C96.4854 199.429 96.2973 199.215 96.6443 197.818L97.6593 193.73C98.4744 192.912 99.2815 192.575 100.068 192.77C101.011 193.004 101.41 193.864 101.106 195.087C100.776 196.414 100.533 197.393 100.191 198.698C99.8262 200.092 99.5426 200.188 98.4121 200.334L98.3861 200.439L102.561 201.476L102.587 201.371C101.656 200.713 101.451 200.495 101.798 199.097L102.8 195.062C103.173 193.56 102.507 192.356 101.092 192.004C99.9393 191.718 98.818 192.126 97.7458 193.232C97.8311 191.992 97.1616 191.029 95.9213 190.721C94.7508 190.43 93.6252 190.855 92.553 191.961L93.0475 189.97C92.0522 190.02 91.048 189.956 90.0305 189.796L90.0045 189.901C91.0185 190.597 91.1194 190.938 90.7507 192.423L89.8312 196.126C89.4842 197.524 89.2006 197.62 88.0701 197.766L88.0441 197.871ZM109.915 203.487C110.684 203.678 111.473 203.113 112.044 202.309L111.921 202.205C111.551 202.65 111.185 202.856 110.888 202.782C110.626 202.717 110.486 202.46 110.581 202.076L111.9 197.21C112.313 195.773 111.425 194.57 109.713 194.145C108.21 193.772 106.692 194.137 105.676 195.164L106.922 196.494L106.997 196.493C107.474 194.943 108.412 194.156 109.512 194.429C110.368 194.641 110.732 195.344 110.471 196.318L110.15 197.462C106.121 197.63 104.197 198.358 103.815 199.895C103.529 201.048 104.264 202.047 105.539 202.363C106.71 202.654 108.08 202.289 109.091 201.428L109.104 201.449C108.831 202.476 109.147 203.296 109.915 203.487ZM106.734 201.658C105.896 201.45 105.458 200.748 105.671 199.892C105.97 198.687 107.387 197.982 110.05 197.79L109.182 200.987C108.271 201.595 107.433 201.832 106.734 201.658Z" fill="#F1EEE3"/>
<path d="M270.222 184.27C275.38 181.381 281.904 183.572 284.272 188.988L286.521 194.131C288.094 197.729 291.627 200.073 295.553 200.124L301.166 200.197C307.076 200.274 311.631 205.433 310.974 211.308L310.35 216.886C309.913 220.788 311.801 224.585 315.176 226.592L320 229.461C325.08 232.483 326.445 239.229 322.939 243.988L319.609 248.507C317.28 251.668 317.016 255.9 318.936 259.326L321.679 264.222C324.568 269.38 322.377 275.904 316.96 278.272L311.818 280.521C308.22 282.094 305.876 285.627 305.825 289.553L305.752 295.166C305.675 301.076 300.516 305.631 294.641 304.974L289.063 304.35C285.161 303.913 281.364 305.801 279.356 309.176L276.487 314C273.465 319.081 266.72 320.445 261.961 316.939L257.442 313.609C254.281 311.28 250.049 311.016 246.623 312.936L241.726 315.679C236.569 318.568 230.045 316.377 227.677 310.96L225.428 305.818C223.855 302.22 220.322 299.876 216.395 299.825L210.783 299.752C204.872 299.675 200.318 294.516 200.975 288.641L201.599 283.063C202.035 279.161 200.148 275.364 196.773 273.357L191.949 270.487C186.868 267.466 185.504 260.72 189.01 255.961L192.339 251.442C194.669 248.281 194.932 244.049 193.013 240.623L190.27 235.726C187.381 230.569 189.572 224.045 194.988 221.677L200.131 219.428C203.729 217.855 206.073 214.322 206.124 210.395L206.197 204.783C206.273 198.872 211.433 194.318 217.308 194.975L222.886 195.599C226.788 196.035 230.585 194.148 232.592 190.773L235.461 185.949C238.483 180.868 245.229 179.504 249.988 183.01L254.507 186.339C257.668 188.669 261.9 188.932 265.326 187.013L270.222 184.27Z" fill="#8471F7"/>
<path d="M233.587 248.184L237.494 249.496L237.529 249.394C236.244 248.469 236.04 248.172 236.871 245.698L239.243 238.634C240.372 242.792 241.495 247.194 242.46 251.164L243.808 251.616L246.822 242.641C247.653 240.167 247.995 240.054 249.594 240.097L249.628 239.995L245.721 238.682L245.686 238.785C246.971 239.71 247.175 240.006 246.344 242.48L243.949 249.613C242.951 245.404 241.901 241.349 240.738 237.009L237.735 236.001L237.701 236.103C238.314 236.651 238.797 237.306 238.938 237.904L236.376 245.532C235.545 248.006 235.221 248.125 233.621 248.081L233.587 248.184ZM249.656 253.77C251.976 254.549 254.262 253.342 255.115 250.8C255.964 248.274 254.881 246.012 252.595 245.244C250.274 244.465 247.966 245.684 247.101 248.26C246.264 250.751 247.352 252.997 249.656 253.77ZM250.134 253.532C248.548 252.999 248.252 250.374 249.025 248.071C249.759 245.887 251.058 245.127 252.133 245.488C253.703 246.015 253.976 248.651 253.203 250.955C252.498 253.054 251.261 253.91 250.134 253.532ZM258.098 256.453L258.422 256.562L263.29 250.887C263.878 250.211 264.129 250.029 265.308 249.855L265.342 249.753L262.424 248.773L262.39 248.875C263.049 249.457 263.276 249.799 263.132 250.226C263.081 250.38 262.989 250.539 262.852 250.721C262.521 251.141 261.437 252.505 259.588 254.675C259.251 250.024 259.223 249.768 259.212 249.517C259.201 249.267 259.202 248.982 259.271 248.777C259.397 248.402 259.767 248.317 260.666 248.297L260.701 248.194L256.571 246.807L256.537 246.91C257.259 247.532 257.445 247.936 257.495 248.58L258.098 256.453ZM266.333 259.371C268.091 259.961 269.732 259.259 270.692 257.644L270.561 257.525C269.716 258.456 268.68 258.773 267.485 258.372C265.659 257.758 264.861 255.952 265.64 253.632L265.749 253.307L271.414 255.21L271.489 254.988C271.949 252.997 271.013 251.429 269.272 250.845C267.003 250.083 264.735 251.41 263.909 253.867C263.084 256.324 264.149 258.637 266.333 259.371ZM265.892 252.995C266.618 251.511 267.73 250.802 268.72 251.134C269.709 251.466 270.236 252.725 269.959 254.228L265.892 252.995ZM270.327 260.522L274.405 261.892L274.44 261.789C273.565 261.059 273.394 260.831 273.853 259.466L277.48 248.664C276.484 248.634 275.483 248.506 274.436 248.231L274.402 248.333C275.345 249.144 275.429 249.457 274.936 250.924L272.249 258.927C271.791 260.292 271.5 260.365 270.362 260.42L270.327 260.522Z" fill="#F1EEE3"/>
<path d="M122.371 258.377C128.421 253.617 137.355 257.191 138.452 264.81L156.555 390.52C157.652 398.139 150.09 404.089 142.943 401.23L25.0235 354.053C17.8762 351.193 16.5047 341.669 22.5546 336.909L122.371 258.377Z" fill="#E2D34D"/>
<path d="M82.1032 317.941L85.7601 321.565L85.8361 321.488C85.1937 320.167 85.1289 319.926 86.2311 318.813L93.3639 311.614L94.1055 312.349C95.2307 313.464 95.2379 315.017 94.5951 316.407L94.6719 316.483L96.5448 314.133L89.41 307.063L87.0768 308.958L87.1535 309.034C88.5379 308.378 90.0906 308.371 91.2158 309.486L91.983 310.246L84.8502 317.445C83.748 318.557 83.5059 318.495 82.1793 317.864L82.1032 317.941ZM87.5714 323.359L90.8319 326.59L90.9079 326.513C90.2787 325.307 90.1881 324.989 91.2017 323.966L94.331 320.808C94.979 320.563 95.5899 320.56 95.9991 320.966C96.3571 321.321 96.5513 322.045 96.5924 322.669L96.6691 322.745L98.2033 321.452L97.7302 320.983C96.784 320.046 95.7017 319.962 94.6475 320.437L94.6218 320.387L95.9143 319.133C95.0723 318.705 94.2167 318.11 93.4118 317.439L93.3358 317.516C93.8498 318.583 93.7625 318.978 92.673 320.077L89.9998 322.775C88.9862 323.798 88.6932 323.736 87.6474 323.283L87.5714 323.359ZM97.2161 333.169C97.7787 333.727 98.7457 333.646 99.6475 333.247L99.5959 333.095C99.0495 333.288 98.6294 333.277 98.4121 333.062C98.2203 332.872 98.2317 332.579 98.5104 332.298L102.134 328.794C103.224 327.77 103.078 326.282 101.824 325.04C100.725 323.951 99.2335 323.487 97.8351 323.849L98.2252 325.629L98.289 325.667C99.4931 324.58 100.701 324.383 101.507 325.182C102.133 325.802 102.086 326.592 101.364 327.295L100.502 328.114C96.955 326.195 94.9295 325.836 93.8146 326.961C92.9785 327.805 93.0987 329.039 94.0321 329.964C94.8888 330.812 96.2525 331.201 97.5624 330.978L97.5625 331.004C96.8023 331.745 96.6535 332.612 97.2161 333.169ZM95.4195 329.97C94.8057 329.362 94.7892 328.535 95.41 327.908C96.2842 327.026 97.863 327.146 100.249 328.344L97.8664 330.646C96.772 330.702 95.9309 330.477 95.4195 329.97ZM99.2028 340.104C100.533 341.422 102.766 342.697 104.159 341.291C104.97 340.472 104.876 339.391 104.17 338.134C103.644 337.182 102.466 335.558 102.196 335.114C102.03 334.847 101.939 334.58 102.155 334.363C102.408 334.107 102.854 334.143 103.415 334.446C103.556 334.637 103.71 334.814 103.889 334.991C105.487 336.575 107.193 336.72 108.333 335.569C109.334 334.559 109.163 333.249 108.521 332.183L108.559 332.144L109.199 332.778C110.119 333.69 110.782 333.789 111.595 333.429L111.633 333.39L110.774 332.007C110.139 332.493 109.376 332.522 108.404 331.56L107.739 330.901C106.358 329.532 104.639 329.273 103.384 330.539C102.409 331.523 102.364 332.822 103.121 334.053C102.087 333.46 101.081 333.35 100.549 333.887C100.169 334.27 100.121 334.958 100.903 336.112L100.89 336.125C99.8563 335.532 98.4285 335.029 97.681 335.784C96.7054 336.768 97.9241 338.837 99.2028 340.104ZM99.5711 339.937C98.497 338.873 97.9817 337.526 98.7926 336.708C99.426 336.068 100.458 336.204 101.172 336.506C101.582 337.089 102.466 338.371 102.684 338.739C103.184 339.564 103.162 340.302 102.693 340.775C101.921 341.555 100.568 340.925 99.5711 339.937ZM104.334 334.977C103.362 334.014 103.89 332.458 104.865 331.474C105.891 330.438 106.885 330.536 107.498 331.144C108.33 331.967 108.006 333.521 106.904 334.634C105.877 335.67 104.948 335.585 104.334 334.977ZM107.87 343.725C109.187 345.03 110.969 345.124 112.543 344.098L112.478 343.933C111.309 344.397 110.24 344.224 109.344 343.337C107.976 341.981 108.056 340.008 109.779 338.269L110.02 338.026L114.265 342.232L114.43 342.066C115.721 340.482 115.572 338.662 114.268 337.37C112.568 335.685 109.947 335.875 108.122 337.717C106.298 339.558 106.233 342.104 107.87 343.725ZM110.286 337.808C111.593 336.797 112.903 336.651 113.645 337.386C114.386 338.12 114.303 339.483 113.393 340.709L110.286 337.808ZM113.603 349.406C114.473 350.268 115.734 350.428 116.776 350.219L116.789 350.232L115.624 351.408L118.063 353.141L118.139 353.064C117.638 352.112 117.522 351.845 118.08 351.282L126.441 342.843C125.51 342.351 124.667 341.77 123.901 341.111L123.824 341.188C124.312 342.077 124.201 342.701 123.643 343.264L121.185 345.744C121.13 344.777 120.756 343.799 120.066 343.115C118.672 341.734 116.229 341.872 114.265 343.854C112.314 345.823 112.312 348.127 113.603 349.406ZM114.532 349.364C113.561 348.401 114.112 346.515 115.886 344.725C117.165 343.433 118.79 342.484 119.775 343.46C120.529 344.207 120.446 345.62 119.678 347.266L117.068 349.9C116.012 350.045 115.069 349.896 114.532 349.364ZM116.572 357.416C117.477 357.755 118.979 357.697 120.745 357.065C121.99 356.627 125.09 355.264 128.062 353.901C128.989 353.476 129.409 353.487 130.403 353.814L130.479 353.737L128.255 351.532L128.179 351.609C128.539 352.422 128.566 352.88 128.174 353.277C128.085 353.366 128.009 353.417 127.806 353.52C126.447 354.201 125.316 354.728 123.132 355.68L125.069 350.732C125.157 350.516 125.258 350.337 125.385 350.209C125.689 349.902 126.109 349.964 126.874 350.317L126.95 350.24L123.805 347.124L123.729 347.2C124.063 347.886 124.129 348.458 123.878 349.121L121.061 356.517C120.845 356.581 120.654 356.671 120.463 356.736C119.294 357.123 117.956 356.709 117.073 355.708L116.971 355.759L116.572 357.416Z" fill="white"/>
<path d="M168.238 348.909C167.581 346.591 169.108 344.222 171.491 343.863L266.177 329.591C266.511 329.54 266.838 329.448 267.149 329.315L355.242 291.78C357.459 290.835 360.001 292.051 360.658 294.369L377.27 352.978C377.927 355.296 376.401 357.665 374.018 358.024L279.332 372.296C278.997 372.346 278.671 372.439 278.36 372.572L190.267 410.107C188.05 411.051 185.508 409.836 184.851 407.518L168.238 348.909Z" fill="#5BB964"/>
<path d="M239.157 366.703L244.421 365.211C248.041 364.185 249.781 360.885 248.706 357.093C247.621 353.265 244.514 351.807 240.098 353.059L235.647 354.321L235.676 354.425C237.142 354.514 237.385 354.576 237.812 356.083L240.074 364.067C240.502 365.573 240.328 365.753 239.127 366.599L239.157 366.703ZM244.081 364.802C243.354 365.008 242.37 364.969 242.242 364.519L239.199 353.782L240.151 353.512C243.389 352.594 245.654 354.047 246.704 357.753C247.725 361.356 246.782 364.036 244.202 364.768L244.081 364.802ZM255.536 362.247C257.319 361.742 258.277 360.236 258.157 358.361L257.982 358.336C257.811 359.582 257.134 360.429 255.922 360.772C254.069 361.297 252.39 360.258 251.722 357.903L251.629 357.574L257.379 355.944L257.315 355.719C256.57 353.816 254.912 353.051 253.146 353.552C250.842 354.204 249.72 356.581 250.427 359.074C251.134 361.568 253.319 362.876 255.536 362.247ZM251.57 357.235C251.332 355.6 251.848 354.387 252.853 354.102C253.857 353.818 255.003 354.559 255.623 355.955L251.57 357.235ZM262.789 360.154C263.638 359.913 264.205 359.341 264.559 358.212L264.465 358.145C264.152 358.757 263.781 359.031 263.382 359.144C262.759 359.321 261.906 359.151 261.536 357.778L260.019 352.296L262.357 351.633L262.304 351.18L259.879 351.867L259.276 349.737L259.12 349.782C258.934 350.844 258.069 352.212 257.459 352.834L257.508 353.007L258.391 352.757L260.011 358.472C260.458 360.048 261.646 360.478 262.789 360.154ZM269.133 358.393C270.917 357.888 271.874 356.382 271.754 354.507L271.579 354.482C271.408 355.728 270.731 356.575 269.519 356.918C267.666 357.443 265.987 356.404 265.319 354.049L265.226 353.72L270.976 352.09L270.912 351.865C270.167 349.962 268.509 349.197 266.743 349.698C264.44 350.35 263.317 352.727 264.024 355.22C264.731 357.714 266.916 359.022 269.133 358.393ZM265.168 353.381C264.929 351.746 265.446 350.533 266.45 350.248C267.454 349.964 268.6 350.705 269.22 352.101L265.168 353.381ZM277.331 356.07C279.081 355.574 279.924 354.062 279.896 352.181L279.743 352.168C279.597 353.238 278.977 354.219 277.748 354.567C276.085 355.038 274.339 354.093 273.657 351.685C273.038 349.503 273.855 348.093 274.807 347.823C275.725 347.563 276.618 348.339 277.266 349.765L277.362 349.775L278.451 348.269C277.488 347.513 276.154 347.03 274.855 347.398C272.881 347.958 271.622 350.185 272.378 352.852C273.095 355.381 275.167 356.683 277.331 356.07ZM284.217 354.081C285.065 353.84 285.633 353.268 285.986 352.138L285.892 352.071C285.579 352.684 285.208 352.958 284.81 353.071C284.186 353.247 283.334 353.077 282.963 351.704L281.447 346.222L283.785 345.559L283.731 345.107L281.307 345.794L280.703 343.664L280.547 343.708C280.362 344.771 279.496 346.139 278.887 346.761L278.936 346.934L279.819 346.683L281.439 352.398C281.885 353.974 283.074 354.405 284.217 354.081ZM286.642 353.243L290.781 352.07L290.752 351.966C289.617 351.858 289.348 351.766 288.955 350.38L287.114 343.886C286.275 344.423 285.372 344.866 284.357 345.247L284.387 345.351C285.623 345.487 285.869 345.698 286.292 347.187L287.327 350.841C287.72 352.227 287.522 352.451 286.613 353.139L286.642 353.243ZM285.675 342.835C286.212 342.682 286.582 342.072 286.425 341.518C286.277 340.999 285.638 340.656 285.101 340.808C284.547 340.965 284.182 341.593 284.329 342.112C284.486 342.666 285.121 342.992 285.675 342.835ZM295.206 350.853L295.535 350.76L296.347 343.327C296.45 342.437 296.555 342.146 297.429 341.336L297.4 341.233L294.439 342.072L294.468 342.176C295.341 342.284 295.721 342.438 295.844 342.871C295.888 343.027 295.902 343.21 295.892 343.437C295.856 343.971 295.731 345.709 295.431 348.544C292.526 344.896 292.359 344.701 292.208 344.5C292.058 344.3 291.898 344.064 291.839 343.857C291.731 343.476 291.988 343.197 292.719 342.672L292.689 342.568L288.499 343.756L288.528 343.859C289.475 343.965 289.857 344.194 290.262 344.696L295.206 350.853ZM303.65 348.61C305.434 348.104 306.391 346.598 306.272 344.723L306.096 344.698C305.925 345.944 305.249 346.791 304.036 347.134C302.183 347.66 300.504 346.62 299.837 344.265L299.743 343.936L305.493 342.306L305.429 342.081C304.684 340.178 303.026 339.413 301.26 339.914C298.957 340.567 297.834 342.943 298.541 345.437C299.248 347.93 301.433 349.238 303.65 348.61ZM299.685 343.597C299.446 341.962 299.963 340.749 300.967 340.465C301.972 340.18 303.117 340.922 303.737 342.317L299.685 343.597Z" fill="white"/>
<defs>
<clipPath id="clip0_2_260">
<rect width="53.9922" height="53.9922" fill="white" transform="translate(307.012 173.984) rotate(-17.2064)"/>
</clipPath>
<clipPath id="clip1_2_260">
<rect width="43.7303" height="43.7303" fill="white" transform="translate(49.5571 233.42) rotate(13.4035)"/>
</clipPath>
<clipPath id="clip2_2_260">
<rect width="24" height="24" fill="white" transform="translate(162 300.877) rotate(-26.9508)"/>
</clipPath>
</defs>
</svg>
